<mxfile host="app.diagrams.net" modified="2021-08-22T07:54:31.154Z" agent="5.0 (X11)" etag="_0lQ3WjVPOWrxFjsTvuo" version="14.8.1" type="github">
  <diagram id="C5RBs43oDa-KdzZeNtuy" name="Page-1">
    <mxGraphModel dx="1672" dy="1262" grid="1" gridSize="13" guides="1" tooltips="1" connect="1" arrows="1" fold="1" page="1" pageScale="1" pageWidth="1169" pageHeight="827" math="0" shadow="0">
      <root>
        <mxCell id="WIyWlLk6GJQsqaUBKTNV-0" />
        <mxCell id="WIyWlLk6GJQsqaUBKTNV-1" parent="WIyWlLk6GJQsqaUBKTNV-0" />
        <mxCell id="zkfFHV4jXpPFQw0GAbJ--0" value="Roles" style="swimlane;fontStyle=2;align=center;verticalAlign=top;childLayout=stackLayout;horizontal=1;startSize=26;horizontalStack=0;resizeParent=1;resizeLast=0;collapsible=1;marginBottom=0;rounded=0;shadow=0;strokeWidth=1;" parent="WIyWlLk6GJQsqaUBKTNV-1" vertex="1">
          <mxGeometry x="429" y="13" width="143" height="137" as="geometry">
            <mxRectangle x="230" y="140" width="160" height="26" as="alternateBounds" />
          </mxGeometry>
        </mxCell>
        <mxCell id="2q-lt2aoGziGqqNFBPpT-6" value="&lt;div align=&quot;left&quot;&gt;Role: struct&lt;/div&gt;" style="text;html=1;align=left;verticalAlign=middle;resizable=0;points=[];autosize=1;strokeColor=none;" parent="zkfFHV4jXpPFQw0GAbJ--0" vertex="1">
          <mxGeometry y="26" width="143" height="26" as="geometry" />
        </mxCell>
        <mxCell id="zkfFHV4jXpPFQw0GAbJ--4" value="" style="line;html=1;strokeWidth=1;align=left;verticalAlign=middle;spacingTop=-1;spacingLeft=3;spacingRight=3;rotatable=0;labelPosition=right;points=[];portConstraint=eastwest;" parent="zkfFHV4jXpPFQw0GAbJ--0" vertex="1">
          <mxGeometry y="52" width="143" height="7" as="geometry" />
        </mxCell>
        <mxCell id="2q-lt2aoGziGqqNFBPpT-2" value="&lt;div align=&quot;left&quot;&gt;add(storage, account)&lt;/div&gt;" style="text;html=1;align=left;verticalAlign=middle;resizable=0;points=[];autosize=1;strokeColor=none;" parent="zkfFHV4jXpPFQw0GAbJ--0" vertex="1">
          <mxGeometry y="59" width="143" height="26" as="geometry" />
        </mxCell>
        <mxCell id="2q-lt2aoGziGqqNFBPpT-3" value="&lt;div align=&quot;left&quot;&gt;remove(role, account)&lt;/div&gt;" style="text;html=1;align=left;verticalAlign=middle;resizable=0;points=[];autosize=1;strokeColor=none;" parent="zkfFHV4jXpPFQw0GAbJ--0" vertex="1">
          <mxGeometry y="85" width="143" height="26" as="geometry" />
        </mxCell>
        <mxCell id="2q-lt2aoGziGqqNFBPpT-8" value="&lt;div align=&quot;left&quot;&gt;has(role, account): bool&lt;/div&gt;" style="text;html=1;align=left;verticalAlign=middle;resizable=0;points=[];autosize=1;strokeColor=none;" parent="zkfFHV4jXpPFQw0GAbJ--0" vertex="1">
          <mxGeometry y="111" width="143" height="26" as="geometry" />
        </mxCell>
        <mxCell id="cFopYHwNMMYgVhNcJi57-41" style="edgeStyle=orthogonalEdgeStyle;rounded=0;orthogonalLoop=1;jettySize=auto;html=1;exitX=0.5;exitY=0;exitDx=0;exitDy=0;" edge="1" parent="WIyWlLk6GJQsqaUBKTNV-1" source="zkfFHV4jXpPFQw0GAbJ--6" target="zkfFHV4jXpPFQw0GAbJ--0">
          <mxGeometry relative="1" as="geometry" />
        </mxCell>
        <mxCell id="zkfFHV4jXpPFQw0GAbJ--6" value="ConsumerRole" style="swimlane;fontStyle=0;align=center;verticalAlign=top;childLayout=stackLayout;horizontal=1;startSize=26;horizontalStack=0;resizeParent=1;resizeLast=0;collapsible=1;marginBottom=0;rounded=0;shadow=0;strokeWidth=1;" parent="WIyWlLk6GJQsqaUBKTNV-1" vertex="1">
          <mxGeometry x="78" y="234" width="179" height="208" as="geometry">
            <mxRectangle x="130" y="380" width="160" height="26" as="alternateBounds" />
          </mxGeometry>
        </mxCell>
        <mxCell id="2q-lt2aoGziGqqNFBPpT-29" value="&lt;div align=&quot;left&quot;&gt;+ ConsumerAdded(account)&lt;/div&gt;" style="text;html=1;align=left;verticalAlign=middle;resizable=0;points=[];autosize=1;strokeColor=none;" parent="zkfFHV4jXpPFQw0GAbJ--6" vertex="1">
          <mxGeometry y="26" width="179" height="26" as="geometry" />
        </mxCell>
        <mxCell id="2q-lt2aoGziGqqNFBPpT-30" value="&lt;div align=&quot;left&quot;&gt;+ ConsumerRemoved(account)&lt;/div&gt;" style="text;html=1;align=left;verticalAlign=middle;resizable=0;points=[];autosize=1;strokeColor=none;" parent="zkfFHV4jXpPFQw0GAbJ--6" vertex="1">
          <mxGeometry y="52" width="179" height="26" as="geometry" />
        </mxCell>
        <mxCell id="2q-lt2aoGziGqqNFBPpT-23" value="&lt;div align=&quot;left&quot;&gt;+ isConsumer(account): bool&lt;/div&gt;" style="text;html=1;align=left;verticalAlign=middle;resizable=0;points=[];autosize=1;strokeColor=none;" parent="zkfFHV4jXpPFQw0GAbJ--6" vertex="1">
          <mxGeometry y="78" width="179" height="26" as="geometry" />
        </mxCell>
        <mxCell id="2q-lt2aoGziGqqNFBPpT-24" value="&lt;div align=&quot;left&quot;&gt;+ addConsumer(account)&lt;/div&gt;" style="text;html=1;align=left;verticalAlign=middle;resizable=0;points=[];autosize=1;strokeColor=none;" parent="zkfFHV4jXpPFQw0GAbJ--6" vertex="1">
          <mxGeometry y="104" width="179" height="26" as="geometry" />
        </mxCell>
        <mxCell id="2q-lt2aoGziGqqNFBPpT-26" value="&lt;div align=&quot;left&quot;&gt;+ renounceConsumer()&lt;/div&gt;" style="text;html=1;align=left;verticalAlign=middle;resizable=0;points=[];autosize=1;strokeColor=none;" parent="zkfFHV4jXpPFQw0GAbJ--6" vertex="1">
          <mxGeometry y="130" width="179" height="26" as="geometry" />
        </mxCell>
        <mxCell id="2q-lt2aoGziGqqNFBPpT-27" value="&lt;div align=&quot;left&quot;&gt;_addConsumer(account)&lt;/div&gt;" style="text;html=1;align=left;verticalAlign=middle;resizable=0;points=[];autosize=1;strokeColor=none;" parent="zkfFHV4jXpPFQw0GAbJ--6" vertex="1">
          <mxGeometry y="156" width="179" height="26" as="geometry" />
        </mxCell>
        <mxCell id="2q-lt2aoGziGqqNFBPpT-28" value="&lt;div align=&quot;left&quot;&gt;_removeConsumer(account)&lt;/div&gt;" style="text;html=1;align=left;verticalAlign=middle;resizable=0;points=[];autosize=1;strokeColor=none;" parent="zkfFHV4jXpPFQw0GAbJ--6" vertex="1">
          <mxGeometry y="182" width="179" height="26" as="geometry" />
        </mxCell>
        <mxCell id="DkI3DnMvECzHycfYhWIX-7" value="Ownable" style="swimlane;fontStyle=0;align=center;verticalAlign=top;childLayout=stackLayout;horizontal=1;startSize=22;horizontalStack=0;resizeParent=1;resizeLast=0;collapsible=1;marginBottom=0;rounded=0;shadow=0;strokeWidth=1;" parent="WIyWlLk6GJQsqaUBKTNV-1" vertex="1">
          <mxGeometry x="767" y="611" width="160" height="182" as="geometry">
            <mxRectangle x="340" y="380" width="170" height="26" as="alternateBounds" />
          </mxGeometry>
        </mxCell>
        <mxCell id="cFopYHwNMMYgVhNcJi57-26" value="&lt;div align=&quot;left&quot;&gt;- origOwner: address&lt;/div&gt;" style="text;html=1;align=left;verticalAlign=middle;resizable=0;points=[];autosize=1;strokeColor=none;" vertex="1" parent="DkI3DnMvECzHycfYhWIX-7">
          <mxGeometry y="22" width="160" height="26" as="geometry" />
        </mxCell>
        <mxCell id="DkI3DnMvECzHycfYhWIX-8" value="" style="line;html=1;strokeWidth=1;align=left;verticalAlign=middle;spacingTop=-1;spacingLeft=3;spacingRight=3;rotatable=0;labelPosition=right;points=[];portConstraint=eastwest;" parent="DkI3DnMvECzHycfYhWIX-7" vertex="1">
          <mxGeometry y="48" width="160" height="4" as="geometry" />
        </mxCell>
        <mxCell id="cFopYHwNMMYgVhNcJi57-27" value="&lt;div align=&quot;left&quot;&gt;+ owner()&lt;/div&gt;" style="text;html=1;align=left;verticalAlign=middle;resizable=0;points=[];autosize=1;strokeColor=none;" vertex="1" parent="DkI3DnMvECzHycfYhWIX-7">
          <mxGeometry y="52" width="160" height="26" as="geometry" />
        </mxCell>
        <mxCell id="cFopYHwNMMYgVhNcJi57-28" value="&lt;div align=&quot;left&quot;&gt;+ isOwner()&lt;/div&gt;" style="text;html=1;align=left;verticalAlign=middle;resizable=0;points=[];autosize=1;strokeColor=none;" vertex="1" parent="DkI3DnMvECzHycfYhWIX-7">
          <mxGeometry y="78" width="160" height="26" as="geometry" />
        </mxCell>
        <mxCell id="cFopYHwNMMYgVhNcJi57-31" value="&lt;div align=&quot;left&quot;&gt;+ transferOwnership()&lt;/div&gt;" style="text;html=1;align=left;verticalAlign=middle;resizable=0;points=[];autosize=1;strokeColor=none;" vertex="1" parent="DkI3DnMvECzHycfYhWIX-7">
          <mxGeometry y="104" width="160" height="26" as="geometry" />
        </mxCell>
        <mxCell id="cFopYHwNMMYgVhNcJi57-29" value="&lt;div align=&quot;left&quot;&gt;+ renounceOwnership()&lt;/div&gt;" style="text;html=1;align=left;verticalAlign=middle;resizable=0;points=[];autosize=1;strokeColor=none;" vertex="1" parent="DkI3DnMvECzHycfYhWIX-7">
          <mxGeometry y="130" width="160" height="26" as="geometry" />
        </mxCell>
        <mxCell id="cFopYHwNMMYgVhNcJi57-32" value="&lt;div align=&quot;left&quot;&gt;- _transferOwnership()&lt;/div&gt;" style="text;html=1;align=left;verticalAlign=middle;resizable=0;points=[];autosize=1;strokeColor=none;" vertex="1" parent="DkI3DnMvECzHycfYhWIX-7">
          <mxGeometry y="156" width="160" height="26" as="geometry" />
        </mxCell>
        <mxCell id="cFopYHwNMMYgVhNcJi57-34" style="edgeStyle=orthogonalEdgeStyle;rounded=0;orthogonalLoop=1;jettySize=auto;html=1;" edge="1" parent="WIyWlLk6GJQsqaUBKTNV-1" source="DkI3DnMvECzHycfYhWIX-9" target="DkI3DnMvECzHycfYhWIX-7">
          <mxGeometry relative="1" as="geometry" />
        </mxCell>
        <mxCell id="cFopYHwNMMYgVhNcJi57-35" style="edgeStyle=orthogonalEdgeStyle;rounded=0;orthogonalLoop=1;jettySize=auto;html=1;exitX=0.5;exitY=0;exitDx=0;exitDy=0;" edge="1" parent="WIyWlLk6GJQsqaUBKTNV-1" source="DkI3DnMvECzHycfYhWIX-9" target="2q-lt2aoGziGqqNFBPpT-47">
          <mxGeometry relative="1" as="geometry" />
        </mxCell>
        <mxCell id="cFopYHwNMMYgVhNcJi57-36" style="edgeStyle=orthogonalEdgeStyle;rounded=0;orthogonalLoop=1;jettySize=auto;html=1;" edge="1" parent="WIyWlLk6GJQsqaUBKTNV-1" source="DkI3DnMvECzHycfYhWIX-9" target="2q-lt2aoGziGqqNFBPpT-39">
          <mxGeometry relative="1" as="geometry" />
        </mxCell>
        <mxCell id="cFopYHwNMMYgVhNcJi57-37" style="edgeStyle=orthogonalEdgeStyle;rounded=0;orthogonalLoop=1;jettySize=auto;html=1;" edge="1" parent="WIyWlLk6GJQsqaUBKTNV-1" source="DkI3DnMvECzHycfYhWIX-9" target="2q-lt2aoGziGqqNFBPpT-31">
          <mxGeometry relative="1" as="geometry" />
        </mxCell>
        <mxCell id="cFopYHwNMMYgVhNcJi57-38" style="edgeStyle=orthogonalEdgeStyle;rounded=0;orthogonalLoop=1;jettySize=auto;html=1;exitX=0.5;exitY=0;exitDx=0;exitDy=0;" edge="1" parent="WIyWlLk6GJQsqaUBKTNV-1" source="DkI3DnMvECzHycfYhWIX-9" target="zkfFHV4jXpPFQw0GAbJ--6">
          <mxGeometry relative="1" as="geometry" />
        </mxCell>
        <mxCell id="DkI3DnMvECzHycfYhWIX-9" value="SupplyChain" style="swimlane;fontStyle=0;align=center;verticalAlign=top;childLayout=stackLayout;horizontal=1;startSize=26;horizontalStack=0;resizeParent=1;resizeLast=0;collapsible=1;marginBottom=0;rounded=0;shadow=0;strokeWidth=1;" parent="WIyWlLk6GJQsqaUBKTNV-1" vertex="1">
          <mxGeometry x="390" y="598" width="221" height="689" as="geometry">
            <mxRectangle x="340" y="380" width="170" height="26" as="alternateBounds" />
          </mxGeometry>
        </mxCell>
        <mxCell id="cFopYHwNMMYgVhNcJi57-0" value="&lt;div align=&quot;left&quot;&gt;+ upc: uint256&lt;/div&gt;" style="text;html=1;align=left;verticalAlign=middle;resizable=0;points=[];autosize=1;strokeColor=none;" vertex="1" parent="DkI3DnMvECzHycfYhWIX-9">
          <mxGeometry y="26" width="221" height="26" as="geometry" />
        </mxCell>
        <mxCell id="cFopYHwNMMYgVhNcJi57-1" value="&lt;div align=&quot;left&quot;&gt;+ sku: uint256&lt;/div&gt;" style="text;html=1;align=left;verticalAlign=middle;resizable=0;points=[];autosize=1;strokeColor=none;" vertex="1" parent="DkI3DnMvECzHycfYhWIX-9">
          <mxGeometry y="52" width="221" height="26" as="geometry" />
        </mxCell>
        <mxCell id="cFopYHwNMMYgVhNcJi57-2" value="&lt;div align=&quot;left&quot;&gt;+ items: mapping&lt;/div&gt;" style="text;html=1;align=left;verticalAlign=middle;resizable=0;points=[];autosize=1;strokeColor=none;" vertex="1" parent="DkI3DnMvECzHycfYhWIX-9">
          <mxGeometry y="78" width="221" height="26" as="geometry" />
        </mxCell>
        <mxCell id="cFopYHwNMMYgVhNcJi57-3" value="&lt;div align=&quot;left&quot;&gt;+ itemsHistory: mapping&lt;/div&gt;" style="text;html=1;align=left;verticalAlign=middle;resizable=0;points=[];autosize=1;strokeColor=none;" vertex="1" parent="DkI3DnMvECzHycfYhWIX-9">
          <mxGeometry y="104" width="221" height="26" as="geometry" />
        </mxCell>
        <mxCell id="cFopYHwNMMYgVhNcJi57-5" value="&lt;div align=&quot;left&quot;&gt;+ State: enum&lt;/div&gt;" style="text;html=1;align=left;verticalAlign=middle;resizable=0;points=[];autosize=1;strokeColor=none;" vertex="1" parent="DkI3DnMvECzHycfYhWIX-9">
          <mxGeometry y="130" width="221" height="26" as="geometry" />
        </mxCell>
        <mxCell id="cFopYHwNMMYgVhNcJi57-6" value="&lt;div align=&quot;left&quot;&gt;+ defaultState: State&lt;/div&gt;" style="text;html=1;align=left;verticalAlign=middle;resizable=0;points=[];autosize=1;strokeColor=none;" vertex="1" parent="DkI3DnMvECzHycfYhWIX-9">
          <mxGeometry y="156" width="221" height="26" as="geometry" />
        </mxCell>
        <mxCell id="cFopYHwNMMYgVhNcJi57-7" value="&lt;div align=&quot;left&quot;&gt;+ Item: struct&lt;/div&gt;" style="text;html=1;align=left;verticalAlign=middle;resizable=0;points=[];autosize=1;strokeColor=none;" vertex="1" parent="DkI3DnMvECzHycfYhWIX-9">
          <mxGeometry y="182" width="221" height="26" as="geometry" />
        </mxCell>
        <mxCell id="DkI3DnMvECzHycfYhWIX-10" value="" style="line;html=1;strokeWidth=1;align=left;verticalAlign=middle;spacingTop=-1;spacingLeft=3;spacingRight=3;rotatable=0;labelPosition=right;points=[];portConstraint=eastwest;" parent="DkI3DnMvECzHycfYhWIX-9" vertex="1">
          <mxGeometry y="208" width="221" height="13" as="geometry" />
        </mxCell>
        <mxCell id="cFopYHwNMMYgVhNcJi57-8" value="&lt;div align=&quot;left&quot;&gt;Harvested(upc)&lt;/div&gt;" style="text;html=1;align=left;verticalAlign=middle;resizable=0;points=[];autosize=1;strokeColor=none;" vertex="1" parent="DkI3DnMvECzHycfYhWIX-9">
          <mxGeometry y="221" width="221" height="26" as="geometry" />
        </mxCell>
        <mxCell id="cFopYHwNMMYgVhNcJi57-9" value="&lt;div align=&quot;left&quot;&gt;Processed(upc)&lt;/div&gt;" style="text;html=1;align=left;verticalAlign=middle;resizable=0;points=[];autosize=1;strokeColor=none;" vertex="1" parent="DkI3DnMvECzHycfYhWIX-9">
          <mxGeometry y="247" width="221" height="26" as="geometry" />
        </mxCell>
        <mxCell id="cFopYHwNMMYgVhNcJi57-11" value="&lt;div align=&quot;left&quot;&gt;ForSale(upc)&lt;/div&gt;" style="text;html=1;align=left;verticalAlign=middle;resizable=0;points=[];autosize=1;strokeColor=none;" vertex="1" parent="DkI3DnMvECzHycfYhWIX-9">
          <mxGeometry y="273" width="221" height="26" as="geometry" />
        </mxCell>
        <mxCell id="cFopYHwNMMYgVhNcJi57-10" value="&lt;div align=&quot;left&quot;&gt;Packed(upc)&lt;/div&gt;" style="text;html=1;align=left;verticalAlign=middle;resizable=0;points=[];autosize=1;strokeColor=none;" vertex="1" parent="DkI3DnMvECzHycfYhWIX-9">
          <mxGeometry y="299" width="221" height="26" as="geometry" />
        </mxCell>
        <mxCell id="cFopYHwNMMYgVhNcJi57-12" value="&lt;div align=&quot;left&quot;&gt;Sold(upc)&lt;/div&gt;" style="text;html=1;align=left;verticalAlign=middle;resizable=0;points=[];autosize=1;strokeColor=none;" vertex="1" parent="DkI3DnMvECzHycfYhWIX-9">
          <mxGeometry y="325" width="221" height="26" as="geometry" />
        </mxCell>
        <mxCell id="cFopYHwNMMYgVhNcJi57-13" value="&lt;div align=&quot;left&quot;&gt;Shipped(upc)&lt;/div&gt;" style="text;html=1;align=left;verticalAlign=middle;resizable=0;points=[];autosize=1;strokeColor=none;" vertex="1" parent="DkI3DnMvECzHycfYhWIX-9">
          <mxGeometry y="351" width="221" height="26" as="geometry" />
        </mxCell>
        <mxCell id="cFopYHwNMMYgVhNcJi57-14" value="&lt;div align=&quot;left&quot;&gt;Received(upc)&lt;/div&gt;" style="text;html=1;align=left;verticalAlign=middle;resizable=0;points=[];autosize=1;strokeColor=none;" vertex="1" parent="DkI3DnMvECzHycfYhWIX-9">
          <mxGeometry y="377" width="221" height="26" as="geometry" />
        </mxCell>
        <mxCell id="cFopYHwNMMYgVhNcJi57-15" value="&lt;div align=&quot;left&quot;&gt;Purchased(upc)&lt;/div&gt;" style="text;html=1;align=left;verticalAlign=middle;resizable=0;points=[];autosize=1;strokeColor=none;" vertex="1" parent="DkI3DnMvECzHycfYhWIX-9">
          <mxGeometry y="403" width="221" height="26" as="geometry" />
        </mxCell>
        <mxCell id="cFopYHwNMMYgVhNcJi57-16" value="&lt;div align=&quot;left&quot;&gt;+ harvestItem()&lt;/div&gt;" style="text;html=1;align=left;verticalAlign=middle;resizable=0;points=[];autosize=1;strokeColor=none;" vertex="1" parent="DkI3DnMvECzHycfYhWIX-9">
          <mxGeometry y="429" width="221" height="26" as="geometry" />
        </mxCell>
        <mxCell id="cFopYHwNMMYgVhNcJi57-17" value="&lt;div align=&quot;left&quot;&gt;+ processItem()&lt;/div&gt;" style="text;html=1;align=left;verticalAlign=middle;resizable=0;points=[];autosize=1;strokeColor=none;" vertex="1" parent="DkI3DnMvECzHycfYhWIX-9">
          <mxGeometry y="455" width="221" height="26" as="geometry" />
        </mxCell>
        <mxCell id="cFopYHwNMMYgVhNcJi57-18" value="&lt;div align=&quot;left&quot;&gt;+ packItem()&lt;/div&gt;" style="text;html=1;align=left;verticalAlign=middle;resizable=0;points=[];autosize=1;strokeColor=none;" vertex="1" parent="DkI3DnMvECzHycfYhWIX-9">
          <mxGeometry y="481" width="221" height="26" as="geometry" />
        </mxCell>
        <mxCell id="cFopYHwNMMYgVhNcJi57-19" value="&lt;div align=&quot;left&quot;&gt;+ selltem()&lt;/div&gt;" style="text;html=1;align=left;verticalAlign=middle;resizable=0;points=[];autosize=1;strokeColor=none;" vertex="1" parent="DkI3DnMvECzHycfYhWIX-9">
          <mxGeometry y="507" width="221" height="26" as="geometry" />
        </mxCell>
        <mxCell id="cFopYHwNMMYgVhNcJi57-20" value="&lt;div align=&quot;left&quot;&gt;+ buyItem()&lt;/div&gt;" style="text;html=1;align=left;verticalAlign=middle;resizable=0;points=[];autosize=1;strokeColor=none;" vertex="1" parent="DkI3DnMvECzHycfYhWIX-9">
          <mxGeometry y="533" width="221" height="26" as="geometry" />
        </mxCell>
        <mxCell id="cFopYHwNMMYgVhNcJi57-21" value="&lt;div align=&quot;left&quot;&gt;+ shipItem()&lt;/div&gt;" style="text;html=1;align=left;verticalAlign=middle;resizable=0;points=[];autosize=1;strokeColor=none;" vertex="1" parent="DkI3DnMvECzHycfYhWIX-9">
          <mxGeometry y="559" width="221" height="26" as="geometry" />
        </mxCell>
        <mxCell id="cFopYHwNMMYgVhNcJi57-22" value="&lt;div align=&quot;left&quot;&gt;+ receiveItem()&lt;/div&gt;" style="text;html=1;align=left;verticalAlign=middle;resizable=0;points=[];autosize=1;strokeColor=none;" vertex="1" parent="DkI3DnMvECzHycfYhWIX-9">
          <mxGeometry y="585" width="221" height="26" as="geometry" />
        </mxCell>
        <mxCell id="cFopYHwNMMYgVhNcJi57-23" value="&lt;div align=&quot;left&quot;&gt;+ purchaseItem()&lt;/div&gt;" style="text;html=1;align=left;verticalAlign=middle;resizable=0;points=[];autosize=1;strokeColor=none;" vertex="1" parent="DkI3DnMvECzHycfYhWIX-9">
          <mxGeometry y="611" width="221" height="26" as="geometry" />
        </mxCell>
        <mxCell id="cFopYHwNMMYgVhNcJi57-25" value="&lt;div align=&quot;left&quot;&gt;+ fetchItemBufferTwo()&lt;/div&gt;" style="text;html=1;align=left;verticalAlign=middle;resizable=0;points=[];autosize=1;strokeColor=none;" vertex="1" parent="DkI3DnMvECzHycfYhWIX-9">
          <mxGeometry y="637" width="221" height="26" as="geometry" />
        </mxCell>
        <mxCell id="cFopYHwNMMYgVhNcJi57-24" value="&lt;div align=&quot;left&quot;&gt;+ fetchItemBufferOne()&lt;/div&gt;" style="text;html=1;align=left;verticalAlign=middle;resizable=0;points=[];autosize=1;strokeColor=none;" vertex="1" parent="DkI3DnMvECzHycfYhWIX-9">
          <mxGeometry y="663" width="221" height="26" as="geometry" />
        </mxCell>
        <mxCell id="cFopYHwNMMYgVhNcJi57-42" value="" style="edgeStyle=orthogonalEdgeStyle;rounded=0;orthogonalLoop=1;jettySize=auto;html=1;" edge="1" parent="WIyWlLk6GJQsqaUBKTNV-1" source="2q-lt2aoGziGqqNFBPpT-31" target="2q-lt2aoGziGqqNFBPpT-8">
          <mxGeometry relative="1" as="geometry" />
        </mxCell>
        <mxCell id="2q-lt2aoGziGqqNFBPpT-31" value="DistributorRole" style="swimlane;fontStyle=0;align=center;verticalAlign=top;childLayout=stackLayout;horizontal=1;startSize=26;horizontalStack=0;resizeParent=1;resizeLast=0;collapsible=1;marginBottom=0;rounded=0;shadow=0;strokeWidth=1;" parent="WIyWlLk6GJQsqaUBKTNV-1" vertex="1">
          <mxGeometry x="299" y="234" width="183" height="208" as="geometry">
            <mxRectangle x="130" y="380" width="160" height="26" as="alternateBounds" />
          </mxGeometry>
        </mxCell>
        <mxCell id="2q-lt2aoGziGqqNFBPpT-32" value="&lt;div align=&quot;left&quot;&gt;+ DistributorAdded(account)&lt;span style=&quot;white-space: pre&quot;&gt;&lt;/span&gt;&lt;/div&gt;" style="text;html=1;align=left;verticalAlign=middle;resizable=0;points=[];autosize=1;strokeColor=none;" parent="2q-lt2aoGziGqqNFBPpT-31" vertex="1">
          <mxGeometry y="26" width="183" height="26" as="geometry" />
        </mxCell>
        <mxCell id="2q-lt2aoGziGqqNFBPpT-33" value="&lt;div align=&quot;left&quot;&gt;+ DistributorRemoved(account)&lt;/div&gt;" style="text;html=1;align=left;verticalAlign=middle;resizable=0;points=[];autosize=1;strokeColor=none;" parent="2q-lt2aoGziGqqNFBPpT-31" vertex="1">
          <mxGeometry y="52" width="183" height="26" as="geometry" />
        </mxCell>
        <mxCell id="2q-lt2aoGziGqqNFBPpT-34" value="&lt;div align=&quot;left&quot;&gt;+ isDistributor(account): bool&lt;/div&gt;" style="text;html=1;align=left;verticalAlign=middle;resizable=0;points=[];autosize=1;strokeColor=none;" parent="2q-lt2aoGziGqqNFBPpT-31" vertex="1">
          <mxGeometry y="78" width="183" height="26" as="geometry" />
        </mxCell>
        <mxCell id="2q-lt2aoGziGqqNFBPpT-35" value="&lt;div align=&quot;left&quot;&gt;+ addDistributor(account)&lt;/div&gt;" style="text;html=1;align=left;verticalAlign=middle;resizable=0;points=[];autosize=1;strokeColor=none;" parent="2q-lt2aoGziGqqNFBPpT-31" vertex="1">
          <mxGeometry y="104" width="183" height="26" as="geometry" />
        </mxCell>
        <mxCell id="2q-lt2aoGziGqqNFBPpT-36" value="&lt;div align=&quot;left&quot;&gt;+ renounceDistributor()&lt;/div&gt;" style="text;html=1;align=left;verticalAlign=middle;resizable=0;points=[];autosize=1;strokeColor=none;" parent="2q-lt2aoGziGqqNFBPpT-31" vertex="1">
          <mxGeometry y="130" width="183" height="26" as="geometry" />
        </mxCell>
        <mxCell id="2q-lt2aoGziGqqNFBPpT-37" value="&lt;div align=&quot;left&quot;&gt;_addDistributor(account)&lt;/div&gt;" style="text;html=1;align=left;verticalAlign=middle;resizable=0;points=[];autosize=1;strokeColor=none;" parent="2q-lt2aoGziGqqNFBPpT-31" vertex="1">
          <mxGeometry y="156" width="183" height="26" as="geometry" />
        </mxCell>
        <mxCell id="2q-lt2aoGziGqqNFBPpT-38" value="&lt;div align=&quot;left&quot;&gt;_removeDistributor(account)&lt;/div&gt;" style="text;html=1;align=left;verticalAlign=middle;resizable=0;points=[];autosize=1;strokeColor=none;" parent="2q-lt2aoGziGqqNFBPpT-31" vertex="1">
          <mxGeometry y="182" width="183" height="26" as="geometry" />
        </mxCell>
        <mxCell id="cFopYHwNMMYgVhNcJi57-43" style="edgeStyle=orthogonalEdgeStyle;rounded=0;orthogonalLoop=1;jettySize=auto;html=1;" edge="1" parent="WIyWlLk6GJQsqaUBKTNV-1" source="2q-lt2aoGziGqqNFBPpT-39" target="zkfFHV4jXpPFQw0GAbJ--0">
          <mxGeometry relative="1" as="geometry" />
        </mxCell>
        <mxCell id="2q-lt2aoGziGqqNFBPpT-39" value="FarmerRole" style="swimlane;fontStyle=0;align=center;verticalAlign=top;childLayout=stackLayout;horizontal=1;startSize=26;horizontalStack=0;resizeParent=1;resizeLast=0;collapsible=1;marginBottom=0;rounded=0;shadow=0;strokeWidth=1;" parent="WIyWlLk6GJQsqaUBKTNV-1" vertex="1">
          <mxGeometry x="520" y="234" width="169" height="208" as="geometry">
            <mxRectangle x="130" y="380" width="160" height="26" as="alternateBounds" />
          </mxGeometry>
        </mxCell>
        <mxCell id="2q-lt2aoGziGqqNFBPpT-40" value="&lt;div align=&quot;left&quot;&gt;+ FarrmerAdded(account)&lt;span style=&quot;white-space: pre&quot;&gt;&lt;/span&gt;&lt;/div&gt;" style="text;html=1;align=left;verticalAlign=middle;resizable=0;points=[];autosize=1;strokeColor=none;" parent="2q-lt2aoGziGqqNFBPpT-39" vertex="1">
          <mxGeometry y="26" width="169" height="26" as="geometry" />
        </mxCell>
        <mxCell id="2q-lt2aoGziGqqNFBPpT-41" value="&lt;div align=&quot;left&quot;&gt;+ Farmer&lt;span style=&quot;white-space: pre&quot;&gt;&lt;/span&gt;Removed(account)&lt;/div&gt;" style="text;html=1;align=left;verticalAlign=middle;resizable=0;points=[];autosize=1;strokeColor=none;" parent="2q-lt2aoGziGqqNFBPpT-39" vertex="1">
          <mxGeometry y="52" width="169" height="26" as="geometry" />
        </mxCell>
        <mxCell id="2q-lt2aoGziGqqNFBPpT-42" value="&lt;div align=&quot;left&quot;&gt;+ isFarmer(account): bool&lt;/div&gt;" style="text;html=1;align=left;verticalAlign=middle;resizable=0;points=[];autosize=1;strokeColor=none;" parent="2q-lt2aoGziGqqNFBPpT-39" vertex="1">
          <mxGeometry y="78" width="169" height="26" as="geometry" />
        </mxCell>
        <mxCell id="2q-lt2aoGziGqqNFBPpT-43" value="&lt;div align=&quot;left&quot;&gt;+ addFarmer(account)&lt;/div&gt;" style="text;html=1;align=left;verticalAlign=middle;resizable=0;points=[];autosize=1;strokeColor=none;" parent="2q-lt2aoGziGqqNFBPpT-39" vertex="1">
          <mxGeometry y="104" width="169" height="26" as="geometry" />
        </mxCell>
        <mxCell id="2q-lt2aoGziGqqNFBPpT-44" value="&lt;div align=&quot;left&quot;&gt;+ renounceFarmer()&lt;/div&gt;" style="text;html=1;align=left;verticalAlign=middle;resizable=0;points=[];autosize=1;strokeColor=none;" parent="2q-lt2aoGziGqqNFBPpT-39" vertex="1">
          <mxGeometry y="130" width="169" height="26" as="geometry" />
        </mxCell>
        <mxCell id="2q-lt2aoGziGqqNFBPpT-45" value="&lt;div align=&quot;left&quot;&gt;_addFarrmer(account)&lt;/div&gt;" style="text;html=1;align=left;verticalAlign=middle;resizable=0;points=[];autosize=1;strokeColor=none;" parent="2q-lt2aoGziGqqNFBPpT-39" vertex="1">
          <mxGeometry y="156" width="169" height="26" as="geometry" />
        </mxCell>
        <mxCell id="2q-lt2aoGziGqqNFBPpT-46" value="&lt;div align=&quot;left&quot;&gt;_removeFarmer(account)&lt;/div&gt;" style="text;html=1;align=left;verticalAlign=middle;resizable=0;points=[];autosize=1;strokeColor=none;" parent="2q-lt2aoGziGqqNFBPpT-39" vertex="1">
          <mxGeometry y="182" width="169" height="26" as="geometry" />
        </mxCell>
        <mxCell id="cFopYHwNMMYgVhNcJi57-44" style="edgeStyle=orthogonalEdgeStyle;rounded=0;orthogonalLoop=1;jettySize=auto;html=1;exitX=0.5;exitY=0;exitDx=0;exitDy=0;" edge="1" parent="WIyWlLk6GJQsqaUBKTNV-1" source="2q-lt2aoGziGqqNFBPpT-47" target="zkfFHV4jXpPFQw0GAbJ--0">
          <mxGeometry relative="1" as="geometry" />
        </mxCell>
        <mxCell id="2q-lt2aoGziGqqNFBPpT-47" value="RetailerRole" style="swimlane;fontStyle=0;align=center;verticalAlign=top;childLayout=stackLayout;horizontal=1;startSize=22;horizontalStack=0;resizeParent=1;resizeLast=0;collapsible=1;marginBottom=0;rounded=0;shadow=0;strokeWidth=1;" parent="WIyWlLk6GJQsqaUBKTNV-1" vertex="1">
          <mxGeometry x="728" y="234" width="169" height="208" as="geometry">
            <mxRectangle x="130" y="380" width="160" height="26" as="alternateBounds" />
          </mxGeometry>
        </mxCell>
        <mxCell id="2q-lt2aoGziGqqNFBPpT-48" value="&lt;div align=&quot;left&quot;&gt;+ RetailerAdded(account)&lt;span style=&quot;white-space: pre&quot;&gt;&lt;/span&gt;&lt;/div&gt;" style="text;html=1;align=left;verticalAlign=middle;resizable=0;points=[];autosize=1;strokeColor=none;" parent="2q-lt2aoGziGqqNFBPpT-47" vertex="1">
          <mxGeometry y="22" width="169" height="26" as="geometry" />
        </mxCell>
        <mxCell id="2q-lt2aoGziGqqNFBPpT-49" value="&lt;div align=&quot;left&quot;&gt;+ Retailer&lt;span style=&quot;white-space: pre&quot;&gt;&lt;/span&gt;Removed(account)&lt;/div&gt;" style="text;html=1;align=left;verticalAlign=middle;resizable=0;points=[];autosize=1;strokeColor=none;" parent="2q-lt2aoGziGqqNFBPpT-47" vertex="1">
          <mxGeometry y="48" width="169" height="26" as="geometry" />
        </mxCell>
        <mxCell id="2q-lt2aoGziGqqNFBPpT-50" value="&lt;div align=&quot;left&quot;&gt;+ isRetailer(account): bool&lt;/div&gt;" style="text;html=1;align=left;verticalAlign=middle;resizable=0;points=[];autosize=1;strokeColor=none;" parent="2q-lt2aoGziGqqNFBPpT-47" vertex="1">
          <mxGeometry y="74" width="169" height="26" as="geometry" />
        </mxCell>
        <mxCell id="2q-lt2aoGziGqqNFBPpT-51" value="&lt;div align=&quot;left&quot;&gt;+ addRetailer(account)&lt;/div&gt;" style="text;html=1;align=left;verticalAlign=middle;resizable=0;points=[];autosize=1;strokeColor=none;" parent="2q-lt2aoGziGqqNFBPpT-47" vertex="1">
          <mxGeometry y="100" width="169" height="26" as="geometry" />
        </mxCell>
        <mxCell id="2q-lt2aoGziGqqNFBPpT-52" value="&lt;div align=&quot;left&quot;&gt;+ renounceRetailer()&lt;/div&gt;" style="text;html=1;align=left;verticalAlign=middle;resizable=0;points=[];autosize=1;strokeColor=none;" parent="2q-lt2aoGziGqqNFBPpT-47" vertex="1">
          <mxGeometry y="126" width="169" height="26" as="geometry" />
        </mxCell>
        <mxCell id="2q-lt2aoGziGqqNFBPpT-53" value="&lt;div align=&quot;left&quot;&gt;_addRetailer(account)&lt;/div&gt;" style="text;html=1;align=left;verticalAlign=middle;resizable=0;points=[];autosize=1;strokeColor=none;" parent="2q-lt2aoGziGqqNFBPpT-47" vertex="1">
          <mxGeometry y="152" width="169" height="26" as="geometry" />
        </mxCell>
        <mxCell id="2q-lt2aoGziGqqNFBPpT-54" value="&lt;div align=&quot;left&quot;&gt;_removeRetailer(account)&lt;/div&gt;" style="text;html=1;align=left;verticalAlign=middle;resizable=0;points=[];autosize=1;strokeColor=none;" parent="2q-lt2aoGziGqqNFBPpT-47" vertex="1">
          <mxGeometry y="178" width="169" height="26" as="geometry" />
        </mxCell>
      </root>
    </mxGraphModel>
  </diagram>
</mxfile>
